# xmcd
#
# Track frame offsets: 
#        183
#        25243
#        50518
#        76943
#        92958
#        111628
#        130070
#        150840
#        162963
#        182358
#
# Disc length: 2688 seconds
#
# Revision: 1
# Processed by: cddbd v1.5.2PL0 Copyright (c) Steve Scherf et al.
# Submitted via: ExactAudioCopy v1.3
#
DISCID=730a7e0a
DTITLE=Captain Beefheart - The New York Hot Dog Night [CD1)
DYEAR=1978
DGENRE=Blues
TTITLE0=tropical hot dog night
TTITLE1=noadays a woman's gotta hit a man
TTITLE2=owed t'alex
TTITLE3=dropout boogie
TTITLE4=harry irene
TTITLE5=abba zaba
TTITLE6=her eyes are a blue million miles
TTITLE7=old fart at play
TTITLE8=well
TTITLE9=ice rose
EXTD=Recorded live at MY FATHER'S PLACE in New York on December 11th, 
EXTD=1978 together with the MAGIC BAND ID3G:   0 YEAR: 1978
EXTT0=
EXTT1=
EXTT2=
EXTT3=
EXTT4=
EXTT5=
EXTT6=
EXTT7=
EXTT8=
EXTT9=
PLAYORDER=
